<?xml version="1.0" standalone="no"?>
<!DOCTYPE svg PUBLIC "-//W3C//DTD SVG 20010904//EN"
 "http://www.w3.org/TR/2001/REC-SVG-20010904/DTD/svg10.dtd">
<svg version="1.0" xmlns="http://www.w3.org/2000/svg"
 width="700.000000pt" height="700.000000pt" viewBox="0 0 700.000000 700.000000"
 preserveAspectRatio="xMidYMid meet">
<metadata>
Created by potrace 1.11, written by Peter Selinger 2001-2013
</metadata>
<g transform="translate(0.000000,700.000000) scale(0.100000,-0.100000)"
fill="#000000" stroke="none">
<path d="M779 6418 c-1 -17 -1 -5796 0 -5825 l1 -23 2720 0 2720 0 1 33 c1 41
0 5798 0 5815 -1 10 -130 12 -628 10 l-627 -3 -1 -415 0 -415 -207 -2 -208 -2
-1 62 c0 34 -1 128 -1 210 l0 147 -209 0 -209 0 0 210 0 210 -630 0 -630 0 0
-210 0 -210 -209 0 -209 0 0 -172 c0 -95 -1 -189 -1 -209 l-1 -36 -207 1 -208
1 -1 410 c-1 226 -2 413 -3 418 -1 4 -282 7 -626 7 -493 0 -625 -3 -626 -12z
m850 -796 c0 -207 0 -396 1 -420 l0 -42 628 2 627 3 0 205 0 205 210 5 210 5
0 205 0 205 209 0 209 0 1 -205 1 -205 208 -3 207 -2 1 -28 c0 -15 1 -109 1
-209 l0 -183 629 0 629 0 0 420 0 420 210 0 209 0 1 -630 0 -630 -2305 0
-2305 0 0 630 0 630 210 0 209 -1 0 -377z m4179 -1281 c18 -2 18 -2501 0
-2502 -7 0 -856 -1 -1885 -2 l-1873 -2 -1 30 c0 17 -1 111 -1 210 l-1 180
-208 0 -209 1 0 -81 c-1 -148 -1 -690 -1 -722 l1 -33 2094 0 2094 0 1 -209 1
-210 -2305 0 -2305 0 0 1672 0 1672 2293 -1 c1260 -1 2298 -2 2305 -3z"/>
<path d="M1637 3498 c-8 -5 -11 -71 -12 -207 0 -170 2 -200 15 -203 13 -3 366
-2 395 1 8 1 12 239 6 391 l-1 25 -196 0 c-108 0 -201 -3 -207 -7z"/>
<path d="M4977 3500 c-10 -4 -13 -51 -11 -200 0 -107 2 -199 3 -205 0 -6 76
-10 204 -10 l202 1 0 209 0 209 -193 1 c-106 0 -198 -2 -205 -5z"/>
</g>
</svg>
